# xmcd
#
# Track frame offsets:
#	150
#	21670
#	40346
#	64491
#	86548
#	100698
#	124600
#	143125
#	169553
#	189598
#	205547
#	231622
#
# Disc length: 3458 seconds
#
# Revision: 1
# Processed by: cddbd v1.4PL0 Copyright (c) Steve Scherf et al.
# Submitted via: audiograbber 1.80
#
DISCID=a70d800c
DTITLE=Elton John - Greatest Hits (Vol 3)
DYEAR=1900
DGENRE=
TTITLE0=I Guess that's why they call it the blues
TTITLE1=Mama can't buy you love
TTITLE2=Little jeannie
TTITLE3=Sad songs (say so much)
TTITLE4=I'm still standing
TTITLE5=Empty garden (hey, hey johnny)
TTITLE6=Heartache all over the world
TTITLE7=Too low for zero
TTITLE8=Kiss the bride
TTITLE9=Blue eyes
TTITLE10=Nikita
TTITLE11=Wrap her up
EXTD=1979 - 1987
EXTT0=
EXTT1=
EXTT2=
EXTT3=
EXTT4=
EXTT5=
EXTT6=
EXTT7=
EXTT8=
EXTT9=
EXTT10=
EXTT11=
PLAYORDER=
